G04 #@! TF.GenerationSoftware,KiCad,Pcbnew,10.0.4*
G04 #@! TF.CreationDate,2026-07-09T22:54:02+09:00*
G04 #@! TF.ProjectId,encoder,656e636f-6465-4722-9e6b-696361645f70,rev?*
G04 #@! TF.SameCoordinates,Original*
G04 #@! TF.FileFunction,Copper,L2,Bot*
G04 #@! TF.FilePolarity,Positive*
%FSLAX46Y46*%
G04 Gerber Fmt 4.6, Leading zero omitted, Abs format (unit mm)*
G04 Created by KiCad (PCBNEW 10.0.4) date 2026-07-09 22:54:02*
%MOMM*%
%LPD*%
G01*
G04 APERTURE LIST*
G04 #@! TA.AperFunction,ComponentPad*
%ADD10C,2.000000*%
G04 #@! TD*
G04 #@! TA.AperFunction,ComponentPad*
%ADD11C,1.600000*%
G04 #@! TD*
G04 #@! TA.AperFunction,Conductor*
%ADD12C,0.500000*%
G04 #@! TD*
G04 APERTURE END LIST*
D10*
X92380000Y-67380000D03*
X92380000Y-69920000D03*
X92380000Y-72460000D03*
X92380000Y-75040000D03*
X92380000Y-77540000D03*
X92380000Y-80080000D03*
X92380000Y-82620000D03*
X107620000Y-82620000D03*
X107620000Y-80080000D03*
X107620000Y-77540000D03*
X107620000Y-75000000D03*
X107620000Y-72460000D03*
X107620000Y-69920000D03*
X107620000Y-67380000D03*
D11*
X98500000Y-107800000D03*
X107800000Y-101500000D03*
X101500000Y-92200000D03*
X99000000Y-94220000D03*
X92200000Y-98500000D03*
X92200000Y-101500000D03*
X107800000Y-98500000D03*
X98500000Y-92200000D03*
X106860000Y-103750000D03*
X101000000Y-106980000D03*
D12*
X98500000Y-92200000D02*
X98500000Y-93720000D01*
X98500000Y-93720000D02*
X99000000Y-94220000D01*
X92380000Y-75040000D02*
X95750000Y-78410000D01*
X95750000Y-78410000D02*
X95750000Y-97250000D01*
X95750000Y-97250000D02*
X101000000Y-102500000D01*
X101000000Y-102500000D02*
X101000000Y-106980000D01*
X92380000Y-69920000D02*
X104000000Y-81540000D01*
X104000000Y-97700000D02*
X107800000Y-101500000D01*
X104000000Y-81540000D02*
X104000000Y-97700000D01*
X105300000Y-80300000D02*
X105300000Y-82900000D01*
X92380000Y-67380000D02*
X105300000Y-80300000D01*
X105300000Y-82900000D02*
X107800000Y-85400000D01*
X107800000Y-85400000D02*
X107800000Y-98500000D01*
X101500000Y-81580000D02*
X101500000Y-92200000D01*
X92380000Y-72460000D02*
X101500000Y-81580000D01*
X94130000Y-103430000D02*
X98500000Y-107800000D01*
X94130000Y-79290000D02*
X94130000Y-103430000D01*
X92380000Y-77540000D02*
X94130000Y-79290000D01*
X92380000Y-80080000D02*
X90600000Y-81860000D01*
X90600000Y-81860000D02*
X90600000Y-99900000D01*
X90600000Y-99900000D02*
X92200000Y-101500000D01*
X92380000Y-98320000D02*
X92200000Y-98500000D01*
X92380000Y-82620000D02*
X92380000Y-98320000D01*
X99000000Y-94220000D02*
X99000000Y-97700000D01*
X107620000Y-69920000D02*
X109370000Y-71670000D01*
X109370000Y-102371370D02*
X107991370Y-103750000D01*
X107991370Y-103750000D02*
X106860000Y-103750000D01*
X99000000Y-97700000D02*
X105050000Y-103750000D01*
X105050000Y-103750000D02*
X106860000Y-103750000D01*
X109370000Y-71670000D02*
X109370000Y-102371370D01*
M02*
