M48
; DRILL file KiCad 10.0.4 date 2026-07-09T22:22:58
; FORMAT={3:3/ absolute / metric / keep zeros}
; #@! TF.CreationDate,2026-07-09T22:22:58+09:00
; #@! TF.GenerationSoftware,Kicad,Pcbnew,10.0.4
; #@! TF.FileFunction,MixedPlating,1,2
FMAT,2
METRIC
; #@! TA.AperFunction,Plated,PTH,ComponentDrill
T1C0.800
; #@! TA.AperFunction,Plated,PTH,ComponentDrill
T2C1.120
; #@! TA.AperFunction,NonPlated,NPTH,ComponentDrill
T3C1.300
; #@! TA.AperFunction,NonPlated,NPTH,ComponentDrill
T4C2.000
%
G90
G05
T1
X092200Y-098500
X092200Y-101500
X098500Y-092200
X098500Y-107800
X099000Y-094220
X101000Y-106980
X101500Y-092200
X106860Y-103750
X107800Y-098500
X107800Y-101500
T2
X092380Y-067380
X092380Y-069920
X092380Y-072460
X092380Y-075040
X092380Y-077540
X092380Y-080080
X092380Y-082620
X107620Y-067380
X107620Y-069920
X107620Y-072460
X107620Y-075000
X107620Y-077540
X107620Y-080080
X107620Y-082620
T3
X096200Y-101500
T4
X091500Y-108000
X108500Y-108000
M30
